<svg width="230" height="230" fill="none" xmlns="http://www.w3.org/2000/svg"><rect width="230" height="230" rx="32" fill="#000"/><path d="M162.797 129.743l-45.568-77.475a2.525 2.525 0 00-.926-.924 2.588 2.588 0 00-2.551-.016 2.52 2.52 0 00-.938.912L99.167 75.455a4.929 4.929 0 000 4.999l29.713 50.542a5.051 5.051 0 001.866 1.831 5.171 5.171 0 002.549.668h27.294a2.592 2.592 0 001.272-.337c.387-.22.708-.536.932-.916.223-.38.341-.81.342-1.249 0-.439-.116-.87-.338-1.25zM43.351 170.234L88.92 92.759c.224-.38.545-.695.932-.914a2.582 2.582 0 012.544 0c.387.22.709.535.932.914l13.654 23.194a4.94 4.94 0 010 5.006l-29.713 50.542a5.037 5.037 0 01-1.862 1.831 5.15 5.15 0 01-2.546.668H45.56a2.586 2.586 0 01-1.282-.333 2.52 2.52 0 01-.938-.92 2.465 2.465 0 01.012-2.513zm49.969 3.749h91.136c.447 0 .887-.116 1.273-.336.387-.22.708-.536.931-.916a2.462 2.462 0 00-.003-2.5l-13.633-23.208a5.05 5.05 0 00-1.866-1.831 5.16 5.16 0 00-2.549-.668h-59.427a5.163 5.163 0 00-2.549.668 5.05 5.05 0 00-1.866 1.831L91.12 170.231a2.466 2.466 0 00-.004 2.5c.224.38.545.696.932.916.387.22.826.336 1.273.336z" fill="#fff"/></svg>