<svg width="91" height="92" viewBox="0 0 91 92" fill="none" xmlns="http://www.w3.org/2000/svg">
<path d="M45.4431 91.5104C70.5406 91.5104 90.8862 71.1648 90.8862 46.0673C90.8862 20.9698 70.5406 0.624222 45.4431 0.624222C20.3456 0.624222 0 20.9698 0 46.0673C0 71.1648 20.3456 91.5104 45.4431 91.5104Z" fill="#FF90C1"/>
<path d="M45.4431 91.5104C70.5406 91.5104 90.8862 71.1648 90.8862 46.0673C90.8862 20.9698 70.5406 0.624222 45.4431 0.624222C20.3456 0.624222 0 20.9698 0 46.0673C0 71.1648 20.3456 91.5104 45.4431 91.5104Z" fill="url(#paint0_linear_2380_1711)"/>
<path fill-rule="evenodd" clip-rule="evenodd" d="M56.8858 19.7837C57.7371 20.3601 58.2471 21.3212 58.2471 22.3493V31.6119H60.6547C64.7986 31.6119 68.1579 34.9712 68.1579 39.1151V60.2582C68.1579 64.8886 64.4042 68.6424 59.7737 68.6424H30.702C26.0719 68.6424 22.3184 64.8893 22.3178 60.2594L22.3081 34.7277C22.3111 33.8092 22.714 33.1789 22.8606 32.9662C23.0448 32.6989 23.2316 32.5173 23.3274 32.4289C23.5252 32.2464 23.7095 32.1226 23.7902 32.0695C23.9757 31.9476 24.1666 31.8441 24.3017 31.7733C24.5949 31.6194 24.9752 31.4386 25.3946 31.2465C26.2484 30.8554 27.4424 30.3366 28.8429 29.7417C31.6522 28.5482 35.3864 27.0083 39.1072 25.4894C42.831 23.9693 46.5535 22.4651 49.3443 21.3413C50.7399 20.7793 51.903 20.3123 52.7173 19.9856L53.9967 19.473C53.9967 19.473 53.9981 19.4724 55.1487 22.3493L53.9967 19.473C54.9513 19.0912 56.0345 19.2073 56.8858 19.7837ZM52.0503 26.932C51.922 26.9836 51.7916 27.0362 51.659 27.0895C48.8734 28.2113 45.1607 29.7115 41.4492 31.2266C41.1346 31.355 40.8201 31.4835 40.5062 31.6119H52.0503V26.932ZM28.5061 37.8087H60.6547C61.3762 37.8087 61.9611 38.3936 61.9611 39.1151V60.2582C61.9611 61.4663 60.9818 62.4456 59.7737 62.4456H30.702C29.4939 62.4456 28.5146 61.4663 28.5146 60.2582L28.5061 37.8087ZM56.7133 47.4612C57.9233 48.6711 57.9234 50.6329 56.7134 51.843L56.6789 51.8775C55.4689 53.0875 53.5072 53.0876 52.2971 51.8776C51.0871 50.6677 51.087 48.7059 52.297 47.4958L52.3315 47.4613C53.5414 46.2513 55.5032 46.2512 56.7133 47.4612Z" fill="url(#paint1_linear_2380_1711)"/>
<defs>
<linearGradient id="paint0_linear_2380_1711" x1="0" y1="0.624222" x2="95.237" y2="86.6963" gradientUnits="userSpaceOnUse">
<stop stop-color="#FF9C27"/>
<stop offset="1" stop-color="#FD48CE"/>
</linearGradient>
<linearGradient id="paint1_linear_2380_1711" x1="45.233" y1="19.2513" x2="114.283" y2="56.3847" gradientUnits="userSpaceOnUse">
<stop offset="0.166667" stop-color="white"/>
<stop offset="1" stop-color="white" stop-opacity="0.5"/>
</linearGradient>
</defs>
</svg>
