<svg width="215" height="36" viewBox="0 0 215 36" fill="none" xmlns="http://www.w3.org/2000/svg">
<path d="M51.2405 19.3075V18.9032C51.2405 17.887 50.8927 17.1094 50.1972 16.5702C49.5228 16.0103 48.6376 15.7304 47.5416 15.7304C46.6986 15.7304 46.0347 15.8755 45.5499 16.1659C45.0863 16.4354 44.6437 16.8502 44.2221 17.4101C44.0957 17.576 43.9587 17.69 43.8112 17.7522C43.6636 17.8145 43.4634 17.8456 43.2105 17.8456H42.2621C42.0302 17.8456 41.8195 17.7626 41.6298 17.5967C41.4612 17.4308 41.3874 17.2338 41.4085 17.0057C41.4717 16.3836 41.7773 15.7719 42.3253 15.1705C42.8944 14.5484 43.6426 14.0403 44.5699 13.6463C45.4973 13.2523 46.4878 13.0553 47.5416 13.0553C49.5017 13.0553 51.0824 13.5945 52.2837 14.6728C53.5062 15.7511 54.1174 17.2649 54.1174 19.2142V28.7014C54.1174 28.9295 54.033 29.1265 53.8644 29.2924C53.6958 29.4583 53.4956 29.5413 53.2638 29.5413H52.0941C51.8622 29.5413 51.662 29.4583 51.4934 29.2924C51.3248 29.1265 51.2405 28.9295 51.2405 28.7014V27.4261C50.9033 28.1726 50.1867 28.7636 49.0907 29.1991C47.9948 29.6346 46.8988 29.8523 45.8029 29.8523C44.728 29.8523 43.769 29.6657 42.926 29.2924C42.0829 28.8984 41.4296 28.3696 40.9659 27.706C40.5233 27.0424 40.302 26.2959 40.302 25.4664C40.302 23.9111 40.8921 22.698 42.0724 21.8271C43.2526 20.9354 44.8228 20.334 46.7829 20.023L51.2405 19.3075ZM51.2405 21.796L47.51 22.387C46.1401 22.5943 45.0757 22.9365 44.317 23.4135C43.5582 23.8697 43.1789 24.4503 43.1789 25.1554C43.1789 25.6738 43.4213 26.1404 43.906 26.5551C44.3908 26.9699 45.1284 27.1772 46.119 27.1772C47.6365 27.1772 48.8694 26.7521 49.8178 25.9019C50.7663 25.0517 51.2405 23.9423 51.2405 22.5736V21.796Z" fill="#FBFDFF"/>
<path d="M61.6067 28.7014C61.6067 28.9295 61.5224 29.1265 61.3538 29.2924C61.1852 29.4583 60.9849 29.5413 60.7531 29.5413H59.5834C59.3515 29.5413 59.1513 29.4583 58.9827 29.2924C58.8141 29.1265 58.7298 28.9295 58.7298 28.7014V8.29615C58.7298 8.06804 58.8141 7.87104 58.9827 7.70514C59.1513 7.53925 59.3515 7.4563 59.5834 7.4563H60.7531C60.9849 7.4563 61.1852 7.53925 61.3538 7.70514C61.5224 7.87104 61.6067 8.06804 61.6067 8.29615V28.7014Z" fill="#FBFDFF"/>
<path d="M72.9944 27.1772C75.102 27.1772 76.5247 26.3685 77.2623 24.751C77.4099 24.4399 77.5574 24.2222 77.7049 24.0978C77.8525 23.9734 78.0527 23.9112 78.3056 23.9112H79.254C79.4859 23.9112 79.6861 23.9941 79.8547 24.16C80.0233 24.3052 80.1076 24.4814 80.1076 24.6888C80.1076 25.3939 79.8231 26.1508 79.254 26.9595C78.685 27.7682 77.863 28.4526 76.7881 29.0125C75.7132 29.5724 74.4487 29.8523 72.9944 29.8523C71.498 29.8523 70.2018 29.5413 69.1059 28.9191C68.0099 28.297 67.1669 27.4468 66.5768 26.3685C65.9866 25.2694 65.66 24.0459 65.5967 22.698C65.5757 22.4492 65.5651 21.9722 65.5651 21.2672C65.5651 20.7695 65.5757 20.417 65.5967 20.2096C65.7864 18.0944 66.5135 16.3732 67.7781 15.0461C69.0427 13.7189 70.7814 13.0553 72.9944 13.0553C74.4487 13.0553 75.7027 13.3353 76.7565 13.8952C77.8314 14.4343 78.6428 15.1083 79.1908 15.917C79.7598 16.705 80.0654 17.4516 80.1076 18.1566C80.1287 18.3847 80.0444 18.5817 79.8547 18.7476C79.6861 18.9135 79.4859 18.9965 79.254 18.9965H78.3056C78.0527 18.9965 77.8525 18.9343 77.7049 18.8098C77.5574 18.6854 77.4099 18.4677 77.2623 18.1566C76.5247 16.5391 75.102 15.7304 72.9944 15.7304C71.8352 15.7304 70.8236 16.114 69.9595 16.8813C69.0954 17.6486 68.6001 18.8098 68.4736 20.3651C68.4525 20.5932 68.442 20.9665 68.442 21.4849C68.442 21.9619 68.4525 22.3144 68.4736 22.5425C68.6211 24.0978 69.1164 25.2591 69.9595 26.0263C70.8236 26.7936 71.8352 27.1772 72.9944 27.1772Z" fill="#FBFDFF"/>
<path d="M98.4971 28.7014C98.4971 28.9295 98.4128 29.1265 98.2442 29.2924C98.0756 29.4583 97.8754 29.5413 97.6435 29.5413H96.4738C96.242 29.5413 96.0417 29.4583 95.8731 29.2924C95.7045 29.1265 95.6202 28.9295 95.6202 28.7014V20.4895C95.6202 18.9343 95.2303 17.7522 94.4505 16.9435C93.6707 16.1348 92.5853 15.7304 91.1943 15.7304C89.8243 15.7304 88.7389 16.1348 87.938 16.9435C87.1582 17.7522 86.7683 18.9343 86.7683 20.4895V28.7014C86.7683 28.9295 86.684 29.1265 86.5154 29.2924C86.3468 29.4583 86.1465 29.5413 85.9147 29.5413H84.745C84.5132 29.5413 84.3129 29.4583 84.1443 29.2924C83.9757 29.1265 83.8914 28.9295 83.8914 28.7014V8.29615C83.8914 8.06804 83.9757 7.87104 84.1443 7.70514C84.3129 7.53925 84.5132 7.4563 84.745 7.4563H85.9147C86.1465 7.4563 86.3468 7.53925 86.5154 7.70514C86.684 7.87104 86.7683 8.06804 86.7683 8.29615V15.1705C87.232 14.5691 87.8642 14.0714 88.6651 13.6774C89.4871 13.2627 90.4882 13.0553 91.6685 13.0553C92.9963 13.0553 94.1765 13.3353 95.2092 13.8952C96.242 14.4551 97.0429 15.2638 97.6119 16.3214C98.2021 17.3582 98.4971 18.5921 98.4971 20.023V28.7014Z" fill="#FBFDFF"/>
<path d="M109.575 13.0553C111.831 13.0553 113.611 13.7604 114.918 15.1705C116.225 16.5806 116.878 18.4988 116.878 20.925V21.7649C116.878 21.993 116.794 22.19 116.625 22.3559C116.457 22.5218 116.256 22.6047 116.025 22.6047H105.149V22.7913C105.192 24.16 105.613 25.2383 106.414 26.0263C107.236 26.7936 108.29 27.1772 109.575 27.1772C110.629 27.1772 111.441 27.0424 112.01 26.7729C112.6 26.5033 113.127 26.1196 113.59 25.622C113.759 25.4561 113.907 25.342 114.033 25.2798C114.181 25.2176 114.37 25.1865 114.602 25.1865H115.55C115.803 25.1865 116.014 25.2694 116.183 25.4353C116.351 25.6012 116.425 25.7982 116.404 26.0263C116.32 26.5862 116.004 27.1669 115.456 27.7682C114.929 28.3489 114.159 28.8466 113.148 29.2613C112.157 29.6553 110.966 29.8523 109.575 29.8523C108.226 29.8523 107.025 29.5516 105.971 28.9503C104.918 28.3281 104.075 27.4779 103.442 26.3996C102.831 25.3213 102.462 24.1082 102.336 22.7602C102.294 22.1381 102.273 21.6612 102.273 21.3294C102.273 20.9976 102.294 20.5206 102.336 19.8985C102.462 18.6128 102.831 17.4516 103.442 16.4147C104.075 15.3779 104.907 14.5587 105.94 13.9574C106.994 13.356 108.205 13.0553 109.575 13.0553ZM114.033 19.9918V19.8985C114.033 18.6336 113.622 17.6278 112.8 16.8813C111.999 16.114 110.924 15.7304 109.575 15.7304C108.353 15.7304 107.31 16.114 106.446 16.8813C105.603 17.6486 105.17 18.6543 105.149 19.8985V19.9918H114.033Z" fill="#FBFDFF"/>
<path d="M123.569 15.1705C124.075 14.5276 124.644 14.0196 125.276 13.6463C125.908 13.2523 126.752 13.0553 127.805 13.0553C130.271 13.0553 131.999 13.9574 132.99 15.7615C133.601 14.8905 134.297 14.2269 135.077 13.7707C135.856 13.2938 136.879 13.0553 138.143 13.0553C140.209 13.0553 141.737 13.667 142.727 14.8905C143.739 16.114 144.245 17.8456 144.245 20.0852V28.7014C144.245 28.9295 144.16 29.1265 143.992 29.2924C143.823 29.4583 143.623 29.5413 143.391 29.5413H142.221C141.99 29.5413 141.789 29.4583 141.621 29.2924C141.452 29.1265 141.368 28.9295 141.368 28.7014V20.3962C141.368 17.2857 140.124 15.7304 137.637 15.7304C136.499 15.7304 135.593 16.1036 134.919 16.8502C134.244 17.5967 133.907 18.7062 133.907 20.1785V28.7014C133.907 28.9295 133.823 29.1265 133.654 29.2924C133.485 29.4583 133.285 29.5413 133.053 29.5413H131.884C131.652 29.5413 131.451 29.4583 131.283 29.2924C131.114 29.1265 131.03 28.9295 131.03 28.7014V20.3962C131.03 17.2857 129.786 15.7304 127.3 15.7304C126.161 15.7304 125.255 16.1036 124.581 16.8502C123.906 17.5967 123.569 18.7062 123.569 20.1785V28.7014C123.569 28.9295 123.485 29.1265 123.316 29.2924C123.148 29.4583 122.947 29.5413 122.715 29.5413H121.546C121.314 29.5413 121.114 29.4583 120.945 29.2924C120.776 29.1265 120.692 28.9295 120.692 28.7014V14.2062C120.692 13.9781 120.776 13.7811 120.945 13.6152C121.114 13.4493 121.314 13.3664 121.546 13.3664H122.715C122.947 13.3664 123.148 13.4493 123.316 13.6152C123.485 13.7811 123.569 13.9781 123.569 14.2062V15.1705Z" fill="#FBFDFF"/>
<path d="M153.099 34.7048C152.909 35.2025 152.604 35.4513 152.182 35.4513H150.886C150.675 35.4513 150.496 35.3787 150.348 35.2336C150.201 35.0884 150.127 34.9122 150.127 34.7048C150.127 34.6218 150.138 34.5493 150.159 34.487L153.194 27.986L146.934 14.3306C146.913 14.2684 146.902 14.1958 146.902 14.1129C146.902 13.9055 146.976 13.7293 147.124 13.5841C147.271 13.4389 147.45 13.3664 147.661 13.3664H148.957C149.379 13.3664 149.685 13.6152 149.874 14.1129L154.743 24.6888L159.675 14.1129C159.864 13.6152 160.17 13.3664 160.591 13.3664H161.888C162.098 13.3664 162.277 13.4389 162.425 13.5841C162.573 13.7293 162.646 13.9055 162.646 14.1129C162.646 14.1958 162.636 14.2684 162.615 14.3306L153.099 34.7048Z" fill="#FBFDFF"/>
<path d="M28.3493 19.2511L17.7339 1.24527C17.6825 1.15636 17.608 1.08229 17.5181 1.03055C17.4281 0.978815 17.3258 0.951226 17.2215 0.950573C17.1172 0.949921 17.0145 0.976226 16.9239 1.02684C16.8333 1.07745 16.7579 1.15057 16.7054 1.23883L13.5262 6.63415C13.422 6.81076 13.3672 7.0111 13.3672 7.21504C13.3672 7.41897 13.422 7.61931 13.5262 7.79592L20.4481 19.5424C20.5523 19.7192 20.7023 19.8659 20.8828 19.9679C21.0634 20.0699 21.2682 20.1235 21.4766 20.1233H27.835C27.9391 20.123 28.0413 20.0959 28.1314 20.0448C28.2215 19.9937 28.2963 19.9204 28.3483 19.8321C28.4004 19.7438 28.4278 19.6437 28.428 19.5417C28.4282 19.4398 28.401 19.3396 28.3493 19.2511Z" fill="#363FF9"/>
<path d="M0.523506 28.6617L11.1389 10.6558C11.191 10.5676 11.2659 10.4944 11.356 10.4435C11.4461 10.3925 11.5483 10.3657 11.6523 10.3657C11.7564 10.3657 11.8586 10.3925 11.9487 10.4435C12.0389 10.4944 12.1137 10.5676 12.1658 10.6558L15.3466 16.0463C15.4507 16.2232 15.5055 16.4238 15.5055 16.628C15.5055 16.8322 15.4507 17.0328 15.3466 17.2097L8.42468 28.9561C8.32086 29.1329 8.17125 29.2797 7.99094 29.3817C7.81064 29.4837 7.60602 29.5373 7.3978 29.537H1.03777C0.932994 29.5375 0.829959 29.5109 0.73913 29.4597C0.648301 29.4086 0.572929 29.3348 0.520678 29.2458C0.468427 29.1569 0.441158 29.056 0.441657 28.9534C0.442156 28.8508 0.470393 28.7501 0.523506 28.6617Z" fill="#363FF9"/>
<path d="M12.1643 29.5332H33.3951C33.4992 29.5331 33.6015 29.5061 33.6917 29.455C33.7818 29.4039 33.8566 29.3305 33.9086 29.2421C33.9605 29.1537 33.9878 29.0534 33.9877 28.9514C33.9875 28.8495 33.9599 28.7493 33.9077 28.661L30.7318 23.2673C30.6276 23.0905 30.4776 22.9438 30.2971 22.8418C30.1165 22.7398 29.9117 22.6862 29.7033 22.6864H15.8594C15.6509 22.6862 15.4461 22.7398 15.2656 22.8418C15.085 22.9438 14.9351 23.0905 14.8308 23.2673L11.6517 28.661C11.5995 28.7493 11.5719 28.8495 11.5717 28.9514C11.5716 29.0534 11.5988 29.1537 11.6508 29.2421C11.7027 29.3305 11.7776 29.4039 11.8677 29.455C11.9579 29.5061 12.0601 29.5331 12.1643 29.5332Z" fill="#363FF9"/>
<rect x="170.319" y="7.8606" width="41.732" height="21.732" rx="2.183" fill="#1F2937"/>
<path d="M178.195 23.3575C177.479 23.3575 176.898 23.1174 176.453 22.6372C176.016 22.1569 175.798 21.5064 175.798 20.6855V18.5768C175.798 17.7472 176.016 17.0923 176.453 16.6121C176.89 16.1318 177.47 15.8917 178.195 15.8917C178.789 15.8917 179.265 16.0532 179.623 16.3763C179.981 16.6994 180.16 17.1316 180.16 17.673L179.924 17.3979H180.186L180.16 15.7607V13.665H181.338V23.2266H180.16V21.8513H179.924L180.16 21.5762C180.16 22.1263 179.981 22.5629 179.623 22.886C179.265 23.2004 178.789 23.3575 178.195 23.3575ZM178.588 22.3359C179.077 22.3359 179.461 22.1831 179.741 21.8775C180.02 21.5718 180.16 21.1483 180.16 20.607V18.6423C180.16 18.1009 180.02 17.6774 179.741 17.3717C179.461 17.0661 179.077 16.9133 178.588 16.9133C178.09 16.9133 177.697 17.0618 177.409 17.3586C177.121 17.6555 176.977 18.0834 176.977 18.6423V20.607C176.977 21.1658 177.121 21.5937 177.409 21.8906C177.697 22.1875 178.09 22.3359 178.588 22.3359ZM186.73 23.3313C186.153 23.3313 185.656 23.2222 185.237 23.0039C184.817 22.7856 184.49 22.4712 184.254 22.0608C184.027 21.6417 183.914 21.1483 183.914 20.5808V18.6684C183.914 18.0921 184.027 17.5988 184.254 17.1884C184.49 16.778 184.817 16.4636 185.237 16.2453C185.656 16.027 186.153 15.9179 186.73 15.9179C187.306 15.9179 187.804 16.027 188.223 16.2453C188.642 16.4636 188.965 16.778 189.192 17.1884C189.428 17.5988 189.546 18.0878 189.546 18.6553V20.5808C189.546 21.1483 189.428 21.6417 189.192 22.0608C188.965 22.4712 188.642 22.7856 188.223 23.0039C187.804 23.2222 187.306 23.3313 186.73 23.3313ZM186.73 22.2835C187.245 22.2835 187.647 22.1394 187.935 21.8513C188.223 21.5631 188.367 21.1396 188.367 20.5808V18.6684C188.367 18.1096 188.223 17.6861 187.935 17.3979C187.647 17.1098 187.245 16.9657 186.73 16.9657C186.223 16.9657 185.822 17.1098 185.525 17.3979C185.237 17.6861 185.093 18.1096 185.093 18.6684V20.5808C185.093 21.1396 185.237 21.5631 185.525 21.8513C185.822 22.1394 186.223 22.2835 186.73 22.2835ZM194.898 23.3575C194.322 23.3575 193.815 23.2484 193.378 23.0301C192.951 22.8118 192.619 22.4974 192.383 22.087C192.147 21.6679 192.029 21.1745 192.029 20.607V18.6423C192.029 18.0659 192.147 17.5726 192.383 17.1622C192.619 16.7518 192.951 16.4374 193.378 16.2191C193.815 16.0008 194.322 15.8917 194.898 15.8917C195.727 15.8917 196.395 16.1143 196.902 16.5597C197.408 17.005 197.675 17.6119 197.701 18.3803H196.522C196.496 17.9175 196.339 17.5638 196.05 17.3194C195.771 17.0661 195.387 16.9395 194.898 16.9395C194.383 16.9395 193.972 17.088 193.667 17.3848C193.361 17.673 193.208 18.0878 193.208 18.6292V20.607C193.208 21.1483 193.361 21.5675 193.667 21.8644C193.972 22.1613 194.383 22.3097 194.898 22.3097C195.387 22.3097 195.771 22.1831 196.05 21.9299C196.339 21.6766 196.496 21.323 196.522 20.8689H197.701C197.675 21.6373 197.408 22.2442 196.902 22.6895C196.395 23.1349 195.727 23.3575 194.898 23.3575ZM202.738 23.3313C202.249 23.3313 201.822 23.2571 201.455 23.1087C201.097 22.9515 200.809 22.7332 200.59 22.4538C200.381 22.1744 200.254 21.8425 200.211 21.4583H201.389C201.442 21.7116 201.581 21.9124 201.808 22.0608C202.044 22.2093 202.354 22.2835 202.738 22.2835H203.289C203.751 22.2835 204.096 22.1918 204.323 22.0084C204.55 21.8163 204.664 21.5631 204.664 21.2488C204.664 20.9431 204.559 20.703 204.349 20.5284C204.149 20.345 203.847 20.2227 203.446 20.1616L202.476 20.0044C201.769 19.8822 201.241 19.6639 200.892 19.3495C200.551 19.0265 200.381 18.5593 200.381 17.9481C200.381 17.3019 200.586 16.8042 200.996 16.4549C201.407 16.0969 202.022 15.9179 202.843 15.9179H203.341C204.031 15.9179 204.585 16.0794 205.004 16.4025C205.424 16.7256 205.677 17.1622 205.764 17.7123H204.585C204.533 17.4853 204.402 17.3063 204.192 17.1753C203.983 17.0356 203.699 16.9657 203.341 16.9657H202.843C202.398 16.9657 202.07 17.0487 201.861 17.2146C201.66 17.3805 201.56 17.6293 201.56 17.9612C201.56 18.258 201.647 18.4763 201.822 18.6161C201.996 18.7558 202.271 18.8562 202.647 18.9173L203.616 19.0745C204.393 19.1967 204.956 19.4238 205.306 19.7556C205.664 20.0874 205.843 20.5677 205.843 21.1964C205.843 21.86 205.629 22.3839 205.201 22.7681C204.782 23.1436 204.144 23.3313 203.289 23.3313H202.738Z" fill="#5167FF"/>
</svg>
