<svg width="215" height="36" viewBox="0 0 215 36" fill="none" xmlns="http://www.w3.org/2000/svg">
<path d="M51.2407 19.3073V18.9029C51.2407 17.8868 50.893 17.1092 50.1975 16.57C49.523 16.0101 48.6378 15.7301 47.5419 15.7301C46.6988 15.7301 46.0349 15.8753 45.5502 16.1656C45.0865 16.4352 44.6439 16.8499 44.2224 17.4098C44.0959 17.5757 43.9589 17.6898 43.8114 17.752C43.6639 17.8142 43.4637 17.8453 43.2107 17.8453H42.2623C42.0305 17.8453 41.8197 17.7624 41.63 17.5965C41.4614 17.4306 41.3877 17.2336 41.4087 17.0055C41.472 16.3834 41.7776 15.7716 42.3255 15.1702C42.8946 14.5481 43.6428 14.0401 44.5701 13.6461C45.4975 13.2521 46.4881 13.0551 47.5419 13.0551C49.5019 13.0551 51.0827 13.5942 52.284 14.6725C53.5064 15.7509 54.1176 17.2647 54.1176 19.214V28.7012C54.1176 28.9293 54.0333 29.1263 53.8647 29.2922C53.6961 29.4581 53.4959 29.541 53.264 29.541H52.0943C51.8625 29.541 51.6622 29.4581 51.4936 29.2922C51.325 29.1263 51.2407 28.9293 51.2407 28.7012V27.4258C50.9035 28.1724 50.1869 28.7634 49.091 29.1989C47.995 29.6343 46.8991 29.8521 45.8031 29.8521C44.7282 29.8521 43.7693 29.6654 42.9262 29.2922C42.0832 28.8982 41.4298 28.3694 40.9661 27.7058C40.5235 27.0422 40.3022 26.2957 40.3022 25.4662C40.3022 23.9109 40.8924 22.6978 42.0726 21.8268C43.2529 20.9351 44.8231 20.3338 46.7831 20.0227L51.2407 19.3073ZM51.2407 21.7957L47.5103 22.3867C46.1403 22.5941 45.076 22.9363 44.3172 23.4132C43.5585 23.8694 43.1791 24.4501 43.1791 25.1551C43.1791 25.6736 43.4215 26.1401 43.9063 26.5549C44.391 26.9696 45.1287 27.177 46.1192 27.177C47.6367 27.177 48.8697 26.7519 49.8181 25.9017C50.7665 25.0514 51.2407 23.942 51.2407 22.5734V21.7957Z" fill="#020617"/>
<path d="M61.6069 28.7012C61.6069 28.9293 61.5226 29.1263 61.354 29.2922C61.1854 29.4581 60.9852 29.541 60.7534 29.541H59.5836C59.3518 29.541 59.1516 29.4581 58.983 29.2922C58.8143 29.1263 58.73 28.9293 58.73 28.7012V8.29591C58.73 8.0678 58.8143 7.8708 58.983 7.7049C59.1516 7.539 59.3518 7.45605 59.5836 7.45605H60.7534C60.9852 7.45605 61.1854 7.539 61.354 7.7049C61.5226 7.8708 61.6069 8.0678 61.6069 8.29591V28.7012Z" fill="#020617"/>
<path d="M72.9947 27.177C75.1023 27.177 76.5249 26.3682 77.2626 24.7508C77.4101 24.4397 77.5576 24.222 77.7052 24.0975C77.8527 23.9731 78.0529 23.9109 78.3058 23.9109H79.2543C79.4861 23.9109 79.6863 23.9939 79.8549 24.1598C80.0235 24.3049 80.1078 24.4812 80.1078 24.6885C80.1078 25.3936 79.8233 26.1505 79.2543 26.9593C78.6852 27.768 77.8632 28.4523 76.7884 29.0122C75.7135 29.5721 74.4489 29.8521 72.9947 29.8521C71.4983 29.8521 70.2021 29.541 69.1061 28.9189C68.0102 28.2968 67.1671 27.4466 66.577 26.3682C65.9869 25.2692 65.6602 24.0457 65.597 22.6978C65.5759 22.4489 65.5654 21.972 65.5654 21.2669C65.5654 20.7692 65.5759 20.4167 65.597 20.2093C65.7867 18.0942 66.5138 16.373 67.7783 15.0458C69.0429 13.7186 70.7817 13.0551 72.9947 13.0551C74.4489 13.0551 75.7029 13.335 76.7567 13.8949C77.8316 14.4341 78.6431 15.108 79.191 15.9168C79.7601 16.7048 80.0657 17.4513 80.1078 18.1564C80.1289 18.3845 80.0446 18.5815 79.8549 18.7474C79.6863 18.9133 79.4861 18.9962 79.2543 18.9962H78.3058C78.0529 18.9962 77.8527 18.934 77.7052 18.8096C77.5576 18.6852 77.4101 18.4674 77.2626 18.1564C76.5249 16.5389 75.1023 15.7301 72.9947 15.7301C71.8355 15.7301 70.8238 16.1138 69.9597 16.881C69.0956 17.6483 68.6003 18.8096 68.4739 20.3649C68.4528 20.593 68.4422 20.9662 68.4422 21.4847C68.4422 21.9616 68.4528 22.3142 68.4739 22.5423C68.6214 24.0975 69.1167 25.2588 69.9597 26.0261C70.8238 26.7934 71.8355 27.177 72.9947 27.177Z" fill="#020617"/>
<path d="M98.4974 28.7012C98.4974 28.9293 98.4131 29.1263 98.2444 29.2922C98.0758 29.4581 97.8756 29.541 97.6438 29.541H96.4741C96.2422 29.541 96.042 29.4581 95.8734 29.2922C95.7048 29.1263 95.6205 28.9293 95.6205 28.7012V20.4893C95.6205 18.934 95.2306 17.752 94.4507 16.9433C93.6709 16.1345 92.5855 15.7301 91.1945 15.7301C89.8246 15.7301 88.7391 16.1345 87.9383 16.9433C87.1584 17.752 86.7685 18.934 86.7685 20.4893V28.7012C86.7685 28.9293 86.6842 29.1263 86.5156 29.2922C86.347 29.4581 86.1468 29.541 85.9149 29.541H84.7452C84.5134 29.541 84.3132 29.4581 84.1446 29.2922C83.976 29.1263 83.8917 28.9293 83.8917 28.7012V8.29591C83.8917 8.0678 83.976 7.8708 84.1446 7.7049C84.3132 7.539 84.5134 7.45605 84.7452 7.45605H85.9149C86.1468 7.45605 86.347 7.539 86.5156 7.7049C86.6842 7.8708 86.7685 8.0678 86.7685 8.29591V15.1702C87.2322 14.5689 87.8645 14.0712 88.6654 13.6772C89.4873 13.2624 90.4885 13.0551 91.6687 13.0551C92.9965 13.0551 94.1768 13.335 95.2095 13.8949C96.2422 14.4548 97.0431 15.2636 97.6122 16.3211C98.2023 17.358 98.4974 18.5919 98.4974 20.0227V28.7012Z" fill="#020617"/>
<path d="M109.576 13.0551C111.831 13.0551 113.612 13.7601 114.918 15.1702C116.225 16.5804 116.878 18.4985 116.878 20.9248V21.7646C116.878 21.9927 116.794 22.1897 116.626 22.3556C116.457 22.5215 116.257 22.6045 116.025 22.6045H105.15V22.7911C105.192 24.1597 105.613 25.2381 106.414 26.0261C107.236 26.7934 108.29 27.177 109.576 27.177C110.629 27.177 111.441 27.0422 112.01 26.7726C112.6 26.503 113.127 26.1194 113.591 25.6217C113.759 25.4558 113.907 25.3418 114.033 25.2796C114.181 25.2173 114.37 25.1862 114.602 25.1862H115.551C115.804 25.1862 116.014 25.2692 116.183 25.4351C116.352 25.601 116.425 25.798 116.404 26.0261C116.32 26.586 116.004 27.1666 115.456 27.768C114.929 28.3486 114.16 28.8463 113.148 29.2611C112.157 29.6551 110.967 29.8521 109.576 29.8521C108.227 29.8521 107.025 29.5514 105.972 28.95C104.918 28.3279 104.075 27.4777 103.442 26.3994C102.831 25.321 102.462 24.1079 102.336 22.76C102.294 22.1379 102.273 21.6609 102.273 21.3291C102.273 20.9974 102.294 20.5204 102.336 19.8983C102.462 18.6126 102.831 17.4513 103.442 16.4145C104.075 15.3776 104.907 14.5585 105.94 13.9571C106.994 13.3557 108.206 13.0551 109.576 13.0551ZM114.033 19.9916V19.8983C114.033 18.6333 113.622 17.6276 112.8 16.881C111.999 16.1138 110.924 15.7301 109.576 15.7301C108.353 15.7301 107.31 16.1138 106.446 16.881C105.603 17.6483 105.171 18.6541 105.15 19.8983V19.9916H114.033Z" fill="#020617"/>
<path d="M123.569 15.1702C124.075 14.5274 124.644 14.0193 125.276 13.6461C125.909 13.2521 126.752 13.0551 127.806 13.0551C130.271 13.0551 132 13.9571 132.99 15.7612C133.602 14.8903 134.297 14.2267 135.077 13.7705C135.857 13.2935 136.879 13.0551 138.143 13.0551C140.209 13.0551 141.737 13.6668 142.727 14.8903C143.739 16.1138 144.245 17.8453 144.245 20.0849V28.7012C144.245 28.9293 144.161 29.1263 143.992 29.2922C143.823 29.4581 143.623 29.541 143.391 29.541H142.222C141.99 29.541 141.79 29.4581 141.621 29.2922C141.452 29.1263 141.368 28.9293 141.368 28.7012V20.396C141.368 17.2854 140.125 15.7301 137.638 15.7301C136.499 15.7301 135.593 16.1034 134.919 16.8499C134.244 17.5965 133.907 18.7059 133.907 20.1782V28.7012C133.907 28.9293 133.823 29.1263 133.654 29.2922C133.486 29.4581 133.285 29.541 133.054 29.541H131.884C131.652 29.541 131.452 29.4581 131.283 29.2922C131.115 29.1263 131.03 28.9293 131.03 28.7012V20.396C131.03 17.2854 129.787 15.7301 127.3 15.7301C126.162 15.7301 125.255 16.1034 124.581 16.8499C123.907 17.5965 123.569 18.7059 123.569 20.1782V28.7012C123.569 28.9293 123.485 29.1263 123.316 29.2922C123.148 29.4581 122.948 29.541 122.716 29.541H121.546C121.314 29.541 121.114 29.4581 120.945 29.2922C120.777 29.1263 120.692 28.9293 120.692 28.7012V14.206C120.692 13.9779 120.777 13.7809 120.945 13.615C121.114 13.4491 121.314 13.3661 121.546 13.3661H122.716C122.948 13.3661 123.148 13.4491 123.316 13.615C123.485 13.7809 123.569 13.9779 123.569 14.206V15.1702Z" fill="#020617"/>
<path d="M153.099 34.7045C152.909 35.2022 152.604 35.4511 152.182 35.4511H150.886C150.675 35.4511 150.496 35.3785 150.349 35.2333C150.201 35.0882 150.127 34.9119 150.127 34.7045C150.127 34.6216 150.138 34.549 150.159 34.4868L153.194 27.9857L146.934 14.3304C146.913 14.2682 146.903 14.1956 146.903 14.1126C146.903 13.9053 146.976 13.729 147.124 13.5839C147.272 13.4387 147.451 13.3661 147.661 13.3661H148.958C149.379 13.3661 149.685 13.615 149.874 14.1126L154.743 24.6885L159.675 14.1126C159.865 13.615 160.17 13.3661 160.592 13.3661H161.888C162.099 13.3661 162.278 13.4387 162.425 13.5839C162.573 13.729 162.647 13.9053 162.647 14.1126C162.647 14.1956 162.636 14.2682 162.615 14.3304L153.099 34.7045Z" fill="#020617"/>
<path d="M28.3495 19.251L17.7341 1.24514C17.6827 1.15623 17.6083 1.08217 17.5183 1.03043C17.4284 0.978693 17.3261 0.951104 17.2217 0.950451C17.1174 0.949798 17.0148 0.976104 16.9241 1.02671C16.8335 1.07732 16.7582 1.15045 16.7056 1.23871L13.5264 6.63403C13.4223 6.81064 13.3675 7.01098 13.3675 7.21492C13.3675 7.41885 13.4223 7.61919 13.5264 7.7958L20.4483 19.5423C20.5525 19.719 20.7025 19.8658 20.8831 19.9678C21.0636 20.0698 21.2684 20.1234 21.4769 20.1231H27.8353C27.9394 20.1228 28.0416 20.0958 28.1316 20.0447C28.2217 19.9936 28.2965 19.9202 28.3486 19.832C28.4006 19.7437 28.4281 19.6436 28.4283 19.5416C28.4284 19.4397 28.4013 19.3395 28.3495 19.251Z" fill="#363FF9"/>
<path d="M0.52375 28.6615L11.1392 10.6557C11.1912 10.5675 11.2661 10.4942 11.3562 10.4433C11.4464 10.3924 11.5486 10.3656 11.6526 10.3656C11.7566 10.3656 11.8589 10.3924 11.949 10.4433C12.0391 10.4942 12.1139 10.5675 12.166 10.6557L15.3469 16.0462C15.451 16.2231 15.5058 16.4237 15.5058 16.6279C15.5058 16.8321 15.451 17.0326 15.3469 17.2096L8.42492 28.956C8.3211 29.1328 8.17149 29.2796 7.99119 29.3816C7.81088 29.4836 7.60627 29.5371 7.39805 29.5369H1.03801C0.933238 29.5374 0.830203 29.5107 0.739374 29.4596C0.648545 29.4085 0.573174 29.3347 0.520922 29.2457C0.468671 29.1568 0.441403 29.0559 0.441901 28.9533C0.4424 28.8506 0.470637 28.75 0.52375 28.6615Z" fill="#363FF9"/>
<path d="M12.1645 29.533H33.3953C33.4995 29.533 33.6018 29.506 33.6919 29.4549C33.782 29.4038 33.8568 29.3304 33.9088 29.242C33.9608 29.1536 33.988 29.0533 33.9879 28.9513C33.9878 28.8493 33.9602 28.7492 33.908 28.6609L30.732 23.2672C30.6278 23.0904 30.4779 22.9436 30.2973 22.8417C30.1168 22.7397 29.9119 22.6861 29.7035 22.6863H15.8596C15.6512 22.6861 15.4464 22.7397 15.2658 22.8417C15.0853 22.9436 14.9353 23.0904 14.8311 23.2672L11.6519 28.6609C11.5997 28.7492 11.5721 28.8493 11.572 28.9513C11.5718 29.0533 11.5991 29.1536 11.651 29.242C11.703 29.3304 11.7778 29.4038 11.868 29.4549C11.9581 29.506 12.0604 29.533 12.1645 29.533Z" fill="#363FF9"/>
<rect x="170.319" y="7.8606" width="41.732" height="21.732" rx="2.183" fill="#ECF3FF"/>
<path d="M178.195 23.3575C177.479 23.3575 176.899 23.1174 176.453 22.6372C176.017 22.1569 175.798 21.5064 175.798 20.6855V18.5768C175.798 17.7472 176.017 17.0923 176.453 16.6121C176.89 16.1318 177.471 15.8917 178.195 15.8917C178.789 15.8917 179.265 16.0532 179.623 16.3763C179.981 16.6994 180.16 17.1316 180.16 17.673L179.924 17.3979H180.186L180.16 15.7607V13.665H181.339V23.2266H180.16V21.8513H179.924L180.16 21.5762C180.16 22.1263 179.981 22.5629 179.623 22.886C179.265 23.2004 178.789 23.3575 178.195 23.3575ZM178.588 22.3359C179.077 22.3359 179.461 22.1831 179.741 21.8775C180.02 21.5718 180.16 21.1483 180.16 20.607V18.6423C180.16 18.1009 180.02 17.6774 179.741 17.3717C179.461 17.0661 179.077 16.9133 178.588 16.9133C178.091 16.9133 177.698 17.0618 177.409 17.3586C177.121 17.6555 176.977 18.0834 176.977 18.6423V20.607C176.977 21.1658 177.121 21.5937 177.409 21.8906C177.698 22.1875 178.091 22.3359 178.588 22.3359ZM186.73 23.3313C186.154 23.3313 185.656 23.2222 185.237 23.0039C184.818 22.7856 184.49 22.4712 184.255 22.0608C184.028 21.6417 183.914 21.1483 183.914 20.5808V18.6684C183.914 18.0921 184.028 17.5988 184.255 17.1884C184.49 16.778 184.818 16.4636 185.237 16.2453C185.656 16.027 186.154 15.9179 186.73 15.9179C187.306 15.9179 187.804 16.027 188.223 16.2453C188.642 16.4636 188.966 16.778 189.193 17.1884C189.428 17.5988 189.546 18.0878 189.546 18.6553V20.5808C189.546 21.1483 189.428 21.6417 189.193 22.0608C188.966 22.4712 188.642 22.7856 188.223 23.0039C187.804 23.2222 187.306 23.3313 186.73 23.3313ZM186.73 22.2835C187.245 22.2835 187.647 22.1394 187.935 21.8513C188.223 21.5631 188.367 21.1396 188.367 20.5808V18.6684C188.367 18.1096 188.223 17.6861 187.935 17.3979C187.647 17.1098 187.245 16.9657 186.73 16.9657C186.224 16.9657 185.822 17.1098 185.525 17.3979C185.237 17.6861 185.093 18.1096 185.093 18.6684V20.5808C185.093 21.1396 185.237 21.5631 185.525 21.8513C185.822 22.1394 186.224 22.2835 186.73 22.2835ZM194.898 23.3575C194.322 23.3575 193.815 23.2484 193.379 23.0301C192.951 22.8118 192.619 22.4974 192.383 22.087C192.148 21.6679 192.03 21.1745 192.03 20.607V18.6423C192.03 18.0659 192.148 17.5726 192.383 17.1622C192.619 16.7518 192.951 16.4374 193.379 16.2191C193.815 16.0008 194.322 15.8917 194.898 15.8917C195.728 15.8917 196.396 16.1143 196.902 16.5597C197.409 17.005 197.675 17.6119 197.701 18.3803H196.522C196.496 17.9175 196.339 17.5638 196.051 17.3194C195.771 17.0661 195.387 16.9395 194.898 16.9395C194.383 16.9395 193.973 17.088 193.667 17.3848C193.361 17.673 193.209 18.0878 193.209 18.6292V20.607C193.209 21.1483 193.361 21.5675 193.667 21.8644C193.973 22.1613 194.383 22.3097 194.898 22.3097C195.387 22.3097 195.771 22.1831 196.051 21.9299C196.339 21.6766 196.496 21.323 196.522 20.8689H197.701C197.675 21.6373 197.409 22.2442 196.902 22.6895C196.396 23.1349 195.728 23.3575 194.898 23.3575ZM202.739 23.3313C202.25 23.3313 201.822 23.2571 201.455 23.1087C201.097 22.9515 200.809 22.7332 200.591 22.4538C200.381 22.1744 200.255 21.8425 200.211 21.4583H201.39C201.442 21.7116 201.582 21.9124 201.809 22.0608C202.045 22.2093 202.355 22.2835 202.739 22.2835H203.289C203.752 22.2835 204.097 22.1918 204.324 22.0084C204.551 21.8163 204.664 21.5631 204.664 21.2488C204.664 20.9431 204.559 20.703 204.35 20.5284C204.149 20.345 203.848 20.2227 203.446 20.1616L202.477 20.0044C201.77 19.8822 201.241 19.6639 200.892 19.3495C200.551 19.0265 200.381 18.5593 200.381 17.9481C200.381 17.3019 200.586 16.8042 200.997 16.4549C201.407 16.0969 202.023 15.9179 202.844 15.9179H203.341C204.031 15.9179 204.586 16.0794 205.005 16.4025C205.424 16.7256 205.677 17.1622 205.764 17.7123H204.586C204.533 17.4853 204.402 17.3063 204.193 17.1753C203.983 17.0356 203.699 16.9657 203.341 16.9657H202.844C202.398 16.9657 202.071 17.0487 201.861 17.2146C201.66 17.3805 201.56 17.6293 201.56 17.9612C201.56 18.258 201.647 18.4763 201.822 18.6161C201.997 18.7558 202.272 18.8562 202.647 18.9173L203.616 19.0745C204.394 19.1967 204.957 19.4238 205.306 19.7556C205.664 20.0874 205.843 20.5677 205.843 21.1964C205.843 21.86 205.629 22.3839 205.201 22.7681C204.782 23.1436 204.145 23.3313 203.289 23.3313H202.739Z" fill="#363FF9"/>
</svg>
