<svg width="34" height="29" viewBox="0 0 34 29" fill="none" xmlns="http://www.w3.org/2000/svg">
<path d="M27.9076 18.5073L17.2922 0.501462C17.2408 0.412552 17.1664 0.33849 17.0764 0.28675C16.9865 0.23501 16.8842 0.207421 16.7798 0.206768C16.6755 0.206116 16.5729 0.232421 16.4823 0.283031C16.3916 0.333641 16.3163 0.406766 16.2637 0.495025L13.0845 5.89035C12.9804 6.06696 12.9256 6.2673 12.9256 6.47123C12.9256 6.67517 12.9804 6.87551 13.0845 7.05212L20.0064 18.7986C20.1107 18.9754 20.2606 19.1221 20.4412 19.2241C20.6217 19.3261 20.8265 19.3797 21.035 19.3795H27.3934C27.4975 19.3792 27.5997 19.3521 27.6897 19.301C27.7798 19.2499 27.8546 19.1766 27.9067 19.0883C27.9587 19 27.9862 18.8999 27.9864 18.7979C27.9865 18.696 27.9594 18.5958 27.9076 18.5073Z" fill="#363FF9"/>
<path d="M0.0818558 27.9179L10.6973 9.912C10.7493 9.82379 10.8242 9.75056 10.9143 9.69965C11.0045 9.64873 11.1067 9.62193 11.2107 9.62193C11.3147 9.62193 11.417 9.64873 11.5071 9.69965C11.5972 9.75056 11.672 9.82379 11.7241 9.912L14.905 15.3025C15.0091 15.4794 15.0639 15.68 15.0639 15.8842C15.0639 16.0884 15.0091 16.289 14.905 16.4659L7.98303 28.2123C7.87921 28.3891 7.7296 28.5359 7.54929 28.6379C7.36899 28.7399 7.16437 28.7935 6.95615 28.7932H0.596115C0.491343 28.7937 0.388308 28.7671 0.297479 28.7159C0.20665 28.6648 0.131279 28.591 0.0790278 28.502C0.0267766 28.4131 -0.000491906 28.3122 6.71746e-06 28.2096C0.000505341 28.107 0.0287425 28.0063 0.0818558 27.9179Z" fill="#363FF9"/>
<path d="M11.7226 28.7894H32.9534C33.0576 28.7893 33.1599 28.7623 33.25 28.7112C33.3402 28.6601 33.4149 28.5867 33.4669 28.4983C33.5189 28.4099 33.5462 28.3096 33.546 28.2076C33.5459 28.1056 33.5183 28.0055 33.4661 27.9172L30.2901 22.5235C30.1859 22.3467 30.036 22.2 29.8554 22.098C29.6749 21.996 29.4701 21.9424 29.2616 21.9426H15.4177C15.2093 21.9424 15.0045 21.996 14.8239 22.098C14.6434 22.2 14.4934 22.3467 14.3892 22.5235L11.21 27.9172C11.1578 28.0055 11.1302 28.1056 11.1301 28.2076C11.1299 28.3096 11.1572 28.4099 11.2091 28.4983C11.2611 28.5867 11.3359 28.6601 11.4261 28.7112C11.5162 28.7623 11.6185 28.7893 11.7226 28.7894Z" fill="#363FF9"/>
</svg>
