<svg width="108" height="43" viewBox="0 0 108 43" fill="none" xmlns="http://www.w3.org/2000/svg">
<path d="M27.9076 25.5073L17.2922 7.50146C17.2408 7.41255 17.1664 7.33849 17.0764 7.28675C16.9865 7.23501 16.8842 7.20742 16.7798 7.20677C16.6755 7.20612 16.5729 7.23242 16.4823 7.28303C16.3916 7.33364 16.3163 7.40677 16.2637 7.49503L13.0845 12.8903C12.9804 13.067 12.9256 13.2673 12.9256 13.4712C12.9256 13.6752 12.9804 13.8755 13.0845 14.0521L20.0064 25.7986C20.1107 25.9754 20.2606 26.1221 20.4412 26.2241C20.6217 26.3261 20.8265 26.3797 21.035 26.3795H27.3934C27.4975 26.3792 27.5997 26.3521 27.6897 26.301C27.7798 26.2499 27.8546 26.1766 27.9067 26.0883C27.9587 26 27.9862 25.8999 27.9864 25.7979C27.9865 25.696 27.9594 25.5958 27.9076 25.5073Z" fill="#363FF9"/>
<path d="M0.0818558 34.9179L10.6973 16.912C10.7493 16.8238 10.8242 16.7506 10.9143 16.6996C11.0045 16.6487 11.1067 16.6219 11.2107 16.6219C11.3147 16.6219 11.417 16.6487 11.5071 16.6996C11.5972 16.7506 11.672 16.8238 11.7241 16.912L14.905 22.3025C15.0091 22.4794 15.0639 22.68 15.0639 22.8842C15.0639 23.0884 15.0091 23.289 14.905 23.4659L7.98303 35.2123C7.87921 35.3891 7.7296 35.5359 7.54929 35.6379C7.36899 35.7399 7.16437 35.7935 6.95615 35.7932H0.596115C0.491343 35.7937 0.388308 35.7671 0.297479 35.7159C0.20665 35.6648 0.131279 35.591 0.0790278 35.502C0.0267766 35.4131 -0.000491906 35.3122 6.71746e-06 35.2096C0.000505341 35.107 0.0287425 35.0063 0.0818558 34.9179Z" fill="#363FF9"/>
<path d="M11.7226 35.7894H32.9534C33.0576 35.7893 33.1599 35.7623 33.25 35.7112C33.3402 35.6601 33.4149 35.5867 33.4669 35.4983C33.5189 35.4099 33.5462 35.3096 33.546 35.2076C33.5459 35.1056 33.5183 35.0055 33.4661 34.9172L30.2901 29.5235C30.1859 29.3467 30.036 29.2 29.8554 29.098C29.6749 28.996 29.4701 28.9424 29.2616 28.9426H15.4177C15.2093 28.9424 15.0045 28.996 14.8239 29.098C14.6434 29.2 14.4934 29.3467 14.3892 29.5235L11.21 34.9172C11.1578 35.0055 11.1302 35.1056 11.1301 35.2076C11.1299 35.3096 11.1572 35.4099 11.2091 35.4983C11.2611 35.5867 11.3359 35.6601 11.4261 35.7112C11.5162 35.7623 11.6185 35.7893 11.7226 35.7894Z" fill="#363FF9"/>
<line x1="50.046" y1="2.18557e-08" x2="50.046" y2="43" stroke="#E2E8F0"/>
<rect x="65.546" y="10.634" width="41.732" height="21.732" rx="2.183" fill="#ECF3FF"/>
<path d="M73.4224 26.131C72.7064 26.131 72.1257 25.8908 71.6803 25.4106C71.2437 24.9303 71.0254 24.2798 71.0254 23.459V21.3502C71.0254 20.5207 71.2437 19.8658 71.6803 19.3855C72.1169 18.9052 72.6976 18.6651 73.4224 18.6651C74.0162 18.6651 74.4921 18.8266 74.8501 19.1497C75.2081 19.4728 75.3871 19.905 75.3871 20.4464L75.1513 20.1714H75.4133L75.3871 18.5341V16.4384H76.5659V26H75.3871V24.6247H75.1513L75.3871 24.3496C75.3871 24.8998 75.2081 25.3364 74.8501 25.6595C74.4921 25.9738 74.0162 26.131 73.4224 26.131ZM73.8153 25.1093C74.3043 25.1093 74.6885 24.9565 74.9679 24.6509C75.2474 24.3453 75.3871 23.9218 75.3871 23.3804V21.4157C75.3871 20.8743 75.2474 20.4508 74.9679 20.1452C74.6885 19.8396 74.3043 19.6867 73.8153 19.6867C73.3176 19.6867 72.9247 19.8352 72.6365 20.1321C72.3483 20.429 72.2043 20.8568 72.2043 21.4157V23.3804C72.2043 23.9392 72.3483 24.3671 72.6365 24.664C72.9247 24.9609 73.3176 25.1093 73.8153 25.1093ZM81.9572 26.1048C81.3809 26.1048 80.8831 25.9956 80.464 25.7773C80.0449 25.559 79.7174 25.2447 79.4817 24.8343C79.2546 24.4151 79.1411 23.9218 79.1411 23.3542V21.4419C79.1411 20.8656 79.2546 20.3722 79.4817 19.9618C79.7174 19.5514 80.0449 19.2371 80.464 19.0187C80.8831 18.8004 81.3809 18.6913 81.9572 18.6913C82.5335 18.6913 83.0312 18.8004 83.4504 19.0187C83.8695 19.2371 84.1926 19.5514 84.4196 19.9618C84.6554 20.3722 84.7733 20.8612 84.7733 21.4288V23.3542C84.7733 23.9218 84.6554 24.4151 84.4196 24.8343C84.1926 25.2447 83.8695 25.559 83.4504 25.7773C83.0312 25.9956 82.5335 26.1048 81.9572 26.1048ZM81.9572 25.0569C82.4724 25.0569 82.874 24.9129 83.1622 24.6247C83.4504 24.3366 83.5944 23.913 83.5944 23.3542V21.4419C83.5944 20.883 83.4504 20.4595 83.1622 20.1714C82.874 19.8832 82.4724 19.7391 81.9572 19.7391C81.4507 19.7391 81.0491 19.8832 80.7522 20.1714C80.464 20.4595 80.3199 20.883 80.3199 21.4419V23.3542C80.3199 23.913 80.464 24.3366 80.7522 24.6247C81.0491 24.9129 81.4507 25.0569 81.9572 25.0569ZM90.1252 26.131C89.5489 26.131 89.0425 26.0218 88.6059 25.8035C88.178 25.5852 87.8462 25.2709 87.6104 24.8605C87.3746 24.4413 87.2568 23.948 87.2568 23.3804V21.4157C87.2568 20.8394 87.3746 20.346 87.6104 19.9356C87.8462 19.5252 88.178 19.2109 88.6059 18.9926C89.0425 18.7743 89.5489 18.6651 90.1252 18.6651C90.9548 18.6651 91.6228 18.8878 92.1292 19.3331C92.6357 19.7784 92.902 20.3853 92.9282 21.1537H91.7494C91.7232 20.6909 91.566 20.3373 91.2779 20.0928C90.9984 19.8396 90.6142 19.7129 90.1252 19.7129C89.61 19.7129 89.1996 19.8614 88.894 20.1583C88.5884 20.4464 88.4356 20.8612 88.4356 21.4026V23.3804C88.4356 23.9218 88.5884 24.3409 88.894 24.6378C89.1996 24.9347 89.61 25.0831 90.1252 25.0831C90.6142 25.0831 90.9984 24.9565 91.2779 24.7033C91.566 24.4501 91.7232 24.0964 91.7494 23.6424H92.9282C92.902 24.4108 92.6357 25.0176 92.1292 25.463C91.6228 25.9083 90.9548 26.131 90.1252 26.131ZM97.9658 26.1048C97.4768 26.1048 97.049 26.0306 96.6822 25.8821C96.3242 25.7249 96.0361 25.5066 95.8178 25.2272C95.6082 24.9478 95.4816 24.616 95.4379 24.2318H96.6167C96.6691 24.485 96.8088 24.6858 97.0359 24.8343C97.2716 24.9827 97.5816 25.0569 97.9658 25.0569H98.516C98.9788 25.0569 99.3237 24.9653 99.5507 24.7819C99.7777 24.5898 99.8912 24.3366 99.8912 24.0222C99.8912 23.7166 99.7865 23.4764 99.5769 23.3018C99.3761 23.1184 99.0748 22.9962 98.6731 22.9351L97.7039 22.7779C96.9966 22.6556 96.4683 22.4373 96.119 22.123C95.7785 21.7999 95.6082 21.3327 95.6082 20.7215C95.6082 20.0753 95.8134 19.5776 96.2238 19.2283C96.6342 18.8703 97.2498 18.6913 98.0706 18.6913H98.5683C99.2582 18.6913 99.8127 18.8528 100.232 19.1759C100.651 19.499 100.904 19.9356 100.991 20.4857H99.8127C99.7603 20.2587 99.6293 20.0797 99.4197 19.9487C99.2102 19.809 98.9264 19.7391 98.5683 19.7391H98.0706C97.6253 19.7391 97.2978 19.8221 97.0883 19.988C96.8874 20.1539 96.787 20.4028 96.787 20.7346C96.787 21.0315 96.8743 21.2498 97.049 21.3895C97.2236 21.5292 97.4987 21.6296 97.8742 21.6907L98.8434 21.8479C99.6206 21.9702 100.184 22.1972 100.533 22.529C100.891 22.8608 101.07 23.3411 101.07 23.9698C101.07 24.6334 100.856 25.1574 100.428 25.5416C100.009 25.917 99.3717 26.1048 98.516 26.1048H97.9658Z" fill="#363FF9"/>
</svg>
