<svg width="787" height="168" viewBox="0 0 787 168" fill="none" xmlns="http://www.w3.org/2000/svg">
<g clip-path="url(#clip0_3194_311104)">
<rect width="787" height="168" rx="16" fill="url(#paint0_linear_3194_311104)"/>
<path d="M274.122 64H265.828V45.41H273.654C277.476 45.41 279.712 47.126 279.712 50.09C279.712 52.378 278.36 53.444 276.826 53.964V54.016C278.776 54.354 280.44 55.784 280.44 58.566C280.44 62.128 277.97 64 274.122 64ZM268.688 53.132H273.576C275.916 53.132 276.722 52.17 276.722 50.506C276.722 48.868 275.734 47.88 273.784 47.88H268.688V53.132ZM268.688 61.53H273.914C276.67 61.53 277.45 60.204 277.45 58.462C277.45 56.512 276.254 55.394 274.304 55.394H268.688V61.53ZM291.338 58.878V50.74H293.886V64H291.338V62.336H291.286C290.584 63.35 289.206 64.364 286.918 64.364C284.474 64.364 282.498 62.96 282.498 59.918V50.74H285.046V59.216C285.046 61.01 285.826 62.206 287.75 62.206C289.934 62.206 291.338 60.88 291.338 58.878ZM299.474 48.374H296.588V45.618H299.474V48.374ZM299.292 64H296.744V50.74H299.292V64ZM304.701 64H302.153V45.41H304.701V64ZM316.973 52.352V45.41H319.521V64H316.973V62.44H316.921C316.193 63.376 314.919 64.364 312.839 64.364C309.459 64.364 306.885 61.738 306.885 57.37C306.885 53.002 309.459 50.35 312.839 50.35C314.919 50.35 316.193 51.312 316.921 52.352H316.973ZM313.255 62.258C315.543 62.258 316.947 60.36 316.947 57.37C316.947 54.354 315.543 52.482 313.255 52.482C310.759 52.482 309.537 54.77 309.537 57.37C309.537 59.97 310.759 62.258 313.255 62.258ZM334.505 50.35C337.885 50.35 340.459 53.002 340.459 57.37C340.459 61.738 337.885 64.364 334.505 64.364C332.425 64.364 331.151 63.428 330.423 62.362H330.371V64H327.823V45.41H330.371V52.3H330.423C331.151 51.364 332.425 50.35 334.505 50.35ZM334.089 62.258C336.585 62.258 337.781 59.97 337.781 57.37C337.781 54.77 336.585 52.482 334.089 52.482C331.801 52.482 330.397 54.354 330.397 57.37C330.397 60.36 331.801 62.258 334.089 62.258ZM345.199 64H342.651V45.41H345.199V64ZM353.987 64.39C349.853 64.39 347.357 61.53 347.357 57.37C347.357 53.236 349.853 50.324 354.013 50.324C358.121 50.324 360.617 53.21 360.617 57.344C360.617 61.504 358.121 64.39 353.987 64.39ZM354.013 62.284C356.717 62.284 357.965 60.126 357.965 57.37C357.965 54.588 356.717 52.456 354.013 52.456C351.257 52.456 350.009 54.588 350.009 57.37C350.009 60.126 351.257 62.284 354.013 62.284ZM368.609 64.39C364.657 64.39 362.083 61.53 362.083 57.37C362.083 53.21 364.657 50.35 368.583 50.35C371.989 50.35 374.251 52.56 374.563 55.55H371.937C371.807 54.172 371.027 52.456 368.609 52.456C365.775 52.456 364.735 54.874 364.735 57.37C364.735 59.866 365.775 62.258 368.609 62.258C371.053 62.258 371.807 60.594 371.937 59.086H374.563C374.381 62.128 372.015 64.39 368.609 64.39ZM388.428 64H385.412L381.07 57.214L379.146 59.06V64H376.598V45.41H379.146V56.356L384.944 50.74H387.882L382.786 55.602L388.428 64ZM394.635 64.39C390.683 64.39 388.109 61.53 388.109 57.37C388.109 53.21 390.683 50.35 394.609 50.35C398.015 50.35 400.277 52.56 400.589 55.55H397.963C397.833 54.172 397.053 52.456 394.635 52.456C391.801 52.456 390.761 54.874 390.761 57.37C390.761 59.866 391.801 62.258 394.635 62.258C397.079 62.258 397.833 60.594 397.963 59.086H400.589C400.407 62.128 398.041 64.39 394.635 64.39ZM409.591 50.35C412.035 50.35 414.011 51.754 414.011 54.796V64H411.463V55.498C411.463 53.73 410.683 52.534 408.759 52.534C406.575 52.534 405.171 53.86 405.171 55.862V64H402.623V45.41H405.171V52.404H405.223C405.925 51.39 407.303 50.35 409.591 50.35ZM420.432 64.364C417.78 64.364 416.09 62.83 416.09 60.568C416.09 57.604 418.326 56.72 421.628 56.096C423.708 55.706 424.982 55.446 424.982 54.146C424.982 53.184 424.41 52.378 422.46 52.378C420.146 52.378 419.444 53.106 419.314 54.874H416.714C416.844 52.326 418.508 50.324 422.564 50.324C425.294 50.324 427.478 51.468 427.478 54.9V60.984C427.478 61.946 427.608 62.44 428.102 62.44C428.18 62.44 428.258 62.44 428.414 62.414V63.974C427.972 64.078 427.53 64.13 427.114 64.13C425.84 64.13 425.164 63.636 425.008 62.128H424.956C424.098 63.506 422.59 64.364 420.432 64.364ZM421.004 62.31C423.292 62.31 424.982 61.14 424.982 58.826V56.928C424.566 57.318 423.422 57.604 422.07 57.89C419.73 58.358 418.742 59.008 418.742 60.386C418.742 61.634 419.418 62.31 421.004 62.31ZM433.308 48.374H430.422V45.618H433.308V48.374ZM433.126 64H430.578V50.74H433.126V64ZM442.955 50.35C445.399 50.35 447.375 51.754 447.375 54.796V64H444.827V55.498C444.827 53.73 444.047 52.534 442.123 52.534C439.939 52.534 438.535 53.86 438.535 55.862V64H435.987V50.74H438.535V52.404H438.587C439.289 51.39 440.667 50.35 442.955 50.35ZM469.993 50.35C472.671 50.35 474.023 51.962 474.023 54.796V64H471.475V55.498C471.475 53.73 471.111 52.534 469.161 52.534C467.263 52.534 466.067 53.86 466.067 55.862V64H463.519V55.498C463.519 53.73 463.155 52.534 461.205 52.534C459.307 52.534 458.111 53.86 458.111 55.862V64H455.563V50.74H458.111V52.404H458.163C458.865 51.39 460.087 50.35 462.089 50.35C463.935 50.35 465.079 51.182 465.599 52.664H465.651C466.613 51.39 467.965 50.35 469.993 50.35ZM480.481 64.364C477.829 64.364 476.139 62.83 476.139 60.568C476.139 57.604 478.375 56.72 481.677 56.096C483.757 55.706 485.031 55.446 485.031 54.146C485.031 53.184 484.459 52.378 482.509 52.378C480.195 52.378 479.493 53.106 479.363 54.874H476.763C476.893 52.326 478.557 50.324 482.613 50.324C485.343 50.324 487.527 51.468 487.527 54.9V60.984C487.527 61.946 487.657 62.44 488.151 62.44C488.229 62.44 488.307 62.44 488.463 62.414V63.974C488.021 64.078 487.579 64.13 487.163 64.13C485.889 64.13 485.213 63.636 485.057 62.128H485.005C484.147 63.506 482.639 64.364 480.481 64.364ZM481.053 62.31C483.341 62.31 485.031 61.14 485.031 58.826V56.928C484.615 57.318 483.471 57.604 482.119 57.89C479.779 58.358 478.791 59.008 478.791 60.386C478.791 61.634 479.467 62.31 481.053 62.31ZM499.835 52.3V50.74H502.383V62.96C502.383 66.964 499.965 68.758 496.169 68.758C492.373 68.758 490.475 66.938 490.215 64.546H492.867C493.127 65.742 494.011 66.678 496.169 66.678C498.587 66.678 499.835 65.612 499.835 63.116V61.322H499.783C499.055 62.388 497.833 63.324 495.701 63.324C492.399 63.324 489.851 61.088 489.851 56.85C489.851 52.586 492.399 50.35 495.701 50.35C497.833 50.35 499.055 51.364 499.783 52.3H499.835ZM496.169 61.218C498.457 61.218 499.809 59.736 499.809 56.85C499.809 53.938 498.457 52.482 496.169 52.482C493.673 52.482 492.503 54.354 492.503 56.85C492.503 59.346 493.673 61.218 496.169 61.218ZM507.957 48.374H505.071V45.618H507.957V48.374ZM507.775 64H505.227V50.74H507.775V64ZM516.459 64.39C512.507 64.39 509.933 61.53 509.933 57.37C509.933 53.21 512.507 50.35 516.433 50.35C519.839 50.35 522.101 52.56 522.413 55.55H519.787C519.657 54.172 518.877 52.456 516.459 52.456C513.625 52.456 512.585 54.874 512.585 57.37C512.585 59.866 513.625 62.258 516.459 62.258C518.903 62.258 519.657 60.594 519.787 59.086H522.413C522.231 62.128 519.865 64.39 516.459 64.39Z" fill="white"/>
<rect x="299.5" y="85" width="188" height="40" rx="7.27273" fill="#18181B"/>
<path d="M328.645 110.14C327.74 110.14 326.953 109.932 326.286 109.517C325.619 109.102 325.105 108.509 324.746 107.739C324.387 106.964 324.207 106.04 324.207 104.967C324.207 103.884 324.394 102.951 324.767 102.167C325.14 101.383 325.665 100.783 326.342 100.368C327.023 99.948 327.821 99.738 328.736 99.738C329.296 99.738 329.812 99.8313 330.283 100.018C330.759 100.205 331.174 100.457 331.529 100.774C331.888 101.091 332.171 101.453 332.376 101.859C332.581 102.265 332.696 102.687 332.719 103.126H330.92C330.855 102.781 330.722 102.463 330.521 102.174C330.325 101.88 330.071 101.644 329.758 101.467C329.45 101.29 329.098 101.201 328.701 101.201C328.192 101.201 327.737 101.329 327.336 101.586C326.939 101.843 326.627 102.246 326.398 102.797C326.174 103.343 326.062 104.052 326.062 104.925C326.062 105.616 326.132 106.199 326.272 106.675C326.417 107.146 326.613 107.527 326.86 107.816C327.112 108.101 327.401 108.308 327.728 108.439C328.055 108.565 328.4 108.628 328.764 108.628C329.119 108.628 329.431 108.567 329.702 108.446C329.973 108.325 330.201 108.166 330.388 107.97C330.579 107.774 330.726 107.564 330.829 107.34C330.936 107.111 330.999 106.89 331.018 106.675L331.081 105.933H328.82V104.729L332.859 104.743V110H331.655V108.579C331.482 108.836 331.263 109.083 330.997 109.321C330.736 109.559 330.414 109.755 330.031 109.909C329.653 110.063 329.191 110.14 328.645 110.14ZM338.124 110.14C337.429 110.14 336.815 109.993 336.283 109.699C335.756 109.4 335.343 108.976 335.044 108.425C334.75 107.874 334.603 107.219 334.603 106.458C334.603 105.716 334.736 105.058 335.002 104.484C335.273 103.905 335.662 103.45 336.171 103.119C336.684 102.788 337.303 102.622 338.026 102.622C338.74 102.622 339.34 102.774 339.825 103.077C340.31 103.38 340.679 103.805 340.931 104.351C341.183 104.892 341.309 105.527 341.309 106.255V106.773H336.304C336.299 107.184 336.365 107.548 336.5 107.865C336.635 108.182 336.836 108.432 337.102 108.614C337.368 108.791 337.697 108.88 338.089 108.88C338.49 108.88 338.838 108.791 339.132 108.614C339.431 108.432 339.629 108.157 339.727 107.788H341.281C341.197 108.292 340.996 108.719 340.679 109.069C340.366 109.419 339.984 109.685 339.531 109.867C339.083 110.049 338.614 110.14 338.124 110.14ZM336.297 105.716H339.699C339.699 105.366 339.636 105.051 339.51 104.771C339.389 104.486 339.204 104.262 338.957 104.099C338.71 103.931 338.397 103.847 338.019 103.847C337.646 103.847 337.331 103.938 337.074 104.12C336.817 104.302 336.624 104.538 336.493 104.827C336.362 105.112 336.297 105.408 336.297 105.716ZM345.568 110.056C344.994 110.056 344.549 109.981 344.231 109.832C343.919 109.678 343.702 109.461 343.58 109.181C343.459 108.901 343.398 108.567 343.398 108.18V103.966H342.222V102.762H343.447L343.874 100.613H345.099V102.755H346.716V103.966H345.099L345.106 108.117C345.106 108.332 345.13 108.49 345.176 108.593C345.228 108.691 345.307 108.756 345.414 108.789C345.526 108.817 345.673 108.831 345.855 108.831H346.751V109.909C346.653 109.946 346.509 109.979 346.317 110.007C346.131 110.04 345.881 110.056 345.568 110.056ZM352.468 112.31C352.001 112.31 351.677 112.273 351.495 112.198C351.313 112.128 351.222 112.093 351.222 112.093V111.001L351.95 111.022C352.244 111.036 352.482 111.02 352.664 110.973C352.85 110.926 352.995 110.861 353.098 110.777C353.2 110.698 353.275 110.611 353.322 110.518C353.373 110.429 353.413 110.352 353.441 110.287L353.63 109.755L350.809 102.762H352.503L354.428 107.879L356.346 102.762H358.012L355.03 110.266C354.806 110.812 354.563 111.232 354.302 111.526C354.045 111.825 353.763 112.03 353.455 112.142C353.151 112.254 352.822 112.31 352.468 112.31ZM362.094 110.14C361.403 110.14 360.801 109.993 360.288 109.699C359.775 109.4 359.376 108.973 359.091 108.418C358.811 107.863 358.671 107.195 358.671 106.416C358.671 105.66 358.809 104.997 359.084 104.428C359.359 103.859 359.751 103.415 360.26 103.098C360.773 102.781 361.387 102.622 362.101 102.622C362.792 102.622 363.391 102.774 363.9 103.077C364.409 103.38 364.801 103.814 365.076 104.379C365.356 104.944 365.496 105.623 365.496 106.416C365.496 107.149 365.363 107.795 365.097 108.355C364.836 108.91 364.451 109.347 363.942 109.664C363.438 109.981 362.822 110.14 362.094 110.14ZM362.101 108.845C362.493 108.845 362.815 108.738 363.067 108.523C363.324 108.308 363.515 108.014 363.641 107.641C363.767 107.268 363.83 106.843 363.83 106.367C363.83 105.924 363.774 105.515 363.662 105.142C363.55 104.769 363.366 104.47 363.109 104.246C362.857 104.017 362.521 103.903 362.101 103.903C361.704 103.903 361.375 104.008 361.114 104.218C360.857 104.423 360.666 104.713 360.54 105.086C360.414 105.455 360.351 105.882 360.351 106.367C360.351 106.806 360.407 107.214 360.519 107.592C360.631 107.965 360.815 108.269 361.072 108.502C361.329 108.731 361.672 108.845 362.101 108.845ZM369.673 110.14C369.318 110.14 368.975 110.089 368.644 109.986C368.317 109.879 368.023 109.725 367.762 109.524C367.501 109.319 367.293 109.067 367.139 108.768C366.985 108.469 366.908 108.122 366.908 107.725V102.762H368.616V107.529C368.616 107.921 368.74 108.243 368.987 108.495C369.239 108.747 369.617 108.873 370.121 108.873C370.578 108.873 370.945 108.754 371.22 108.516C371.495 108.273 371.633 107.926 371.633 107.473V102.762H373.327V110H372.018L371.829 108.586C371.74 108.983 371.584 109.295 371.36 109.524C371.141 109.748 370.882 109.907 370.583 110C370.289 110.093 369.986 110.14 369.673 110.14ZM375.325 110V102.762H376.956V104.33C377.073 103.971 377.239 103.665 377.453 103.413C377.673 103.156 377.929 102.96 378.223 102.825C378.517 102.69 378.837 102.622 379.182 102.622C379.266 102.622 379.348 102.627 379.427 102.636C379.507 102.645 379.565 102.662 379.602 102.685V104.316C379.551 104.293 379.483 104.276 379.399 104.267C379.32 104.258 379.25 104.253 379.189 104.253C378.839 104.225 378.529 104.239 378.258 104.295C377.992 104.351 377.766 104.447 377.579 104.582C377.397 104.713 377.26 104.881 377.166 105.086C377.073 105.287 377.026 105.522 377.026 105.793V110H375.325ZM385.108 110V103.966H383.68V102.762H385.108V101.684C385.108 101.105 385.266 100.66 385.584 100.347C385.906 100.034 386.37 99.878 386.977 99.878H388.503L388.51 101.04H387.502C387.226 101.04 387.037 101.112 386.935 101.257C386.832 101.397 386.781 101.619 386.781 101.922V102.762H388.44V103.966H386.809V110H385.108ZM389.777 110V102.762H391.408V104.33C391.524 103.971 391.69 103.665 391.905 103.413C392.124 103.156 392.381 102.96 392.675 102.825C392.969 102.69 393.288 102.622 393.634 102.622C393.718 102.622 393.799 102.627 393.879 102.636C393.958 102.645 394.016 102.662 394.054 102.685V104.316C394.002 104.293 393.935 104.276 393.851 104.267C393.771 104.258 393.701 104.253 393.641 104.253C393.291 104.225 392.98 104.239 392.71 104.295C392.444 104.351 392.217 104.447 392.031 104.582C391.849 104.713 391.711 104.881 391.618 105.086C391.524 105.287 391.478 105.522 391.478 105.793V110H389.777ZM398.554 110.14C397.858 110.14 397.245 109.993 396.713 109.699C396.185 109.4 395.772 108.976 395.474 108.425C395.18 107.874 395.033 107.219 395.033 106.458C395.033 105.716 395.166 105.058 395.432 104.484C395.702 103.905 396.092 103.45 396.601 103.119C397.114 102.788 397.732 102.622 398.456 102.622C399.17 102.622 399.769 102.774 400.255 103.077C400.74 103.38 401.109 103.805 401.361 104.351C401.613 104.892 401.739 105.527 401.739 106.255V106.773H396.734C396.729 107.184 396.794 107.548 396.93 107.865C397.065 108.182 397.266 108.432 397.532 108.614C397.798 108.791 398.127 108.88 398.519 108.88C398.92 108.88 399.268 108.791 399.562 108.614C399.86 108.432 400.059 108.157 400.157 107.788H401.711C401.627 108.292 401.426 108.719 401.109 109.069C400.796 109.419 400.413 109.685 399.961 109.867C399.513 110.049 399.044 110.14 398.554 110.14ZM396.727 105.716H400.129C400.129 105.366 400.066 105.051 399.94 104.771C399.818 104.486 399.634 104.262 399.387 104.099C399.139 103.931 398.827 103.847 398.449 103.847C398.075 103.847 397.76 103.938 397.504 104.12C397.247 104.302 397.053 104.538 396.923 104.827C396.792 105.112 396.727 105.408 396.727 105.716ZM406.565 110.14C405.87 110.14 405.256 109.993 404.724 109.699C404.197 109.4 403.784 108.976 403.485 108.425C403.191 107.874 403.044 107.219 403.044 106.458C403.044 105.716 403.177 105.058 403.443 104.484C403.714 103.905 404.104 103.45 404.612 103.119C405.126 102.788 405.744 102.622 406.467 102.622C407.181 102.622 407.781 102.774 408.266 103.077C408.752 103.38 409.12 103.805 409.372 104.351C409.624 104.892 409.75 105.527 409.75 106.255V106.773H404.745C404.741 107.184 404.806 107.548 404.941 107.865C405.077 108.182 405.277 108.432 405.543 108.614C405.809 108.791 406.138 108.88 406.53 108.88C406.932 108.88 407.279 108.791 407.573 108.614C407.872 108.432 408.07 108.157 408.168 107.788H409.722C409.638 108.292 409.438 108.719 409.12 109.069C408.808 109.419 408.425 109.685 407.972 109.867C407.524 110.049 407.055 110.14 406.565 110.14ZM404.738 105.716H408.14C408.14 105.366 408.077 105.051 407.951 104.771C407.83 104.486 407.646 104.262 407.398 104.099C407.151 103.931 406.838 103.847 406.46 103.847C406.087 103.847 405.772 103.938 405.515 104.12C405.259 104.302 405.065 104.538 404.934 104.827C404.804 105.112 404.738 105.408 404.738 105.716ZM414.087 110L417.72 99.878H419.568L423.201 110H421.493L420.59 107.459H416.712L415.802 110H414.087ZM417.118 105.947H420.163L418.644 101.53L417.118 105.947ZM424.899 110V99.878H428.49C429.218 99.878 429.869 100.004 430.443 100.256C431.021 100.503 431.476 100.87 431.808 101.355C432.139 101.84 432.305 102.438 432.305 103.147C432.305 103.814 432.153 104.386 431.85 104.862C431.551 105.338 431.133 105.702 430.597 105.954C430.06 106.206 429.432 106.332 428.714 106.332H426.628V110H424.899ZM426.614 104.967H428.672C429.264 104.967 429.747 104.79 430.121 104.435C430.499 104.08 430.688 103.618 430.688 103.049C430.688 102.47 430.492 102.022 430.1 101.705C429.708 101.383 429.215 101.222 428.623 101.222H426.614V104.967ZM433.922 110V99.878H435.623V110H433.922ZM441.087 110V99.598H442.781V106.045L445.784 102.762H447.653L445.035 105.59L447.786 110H446.057L443.957 106.647L442.781 107.879V110H441.087ZM451.942 110.14C451.247 110.14 450.633 109.993 450.101 109.699C449.574 109.4 449.161 108.976 448.862 108.425C448.568 107.874 448.421 107.219 448.421 106.458C448.421 105.716 448.554 105.058 448.82 104.484C449.091 103.905 449.481 103.45 449.989 103.119C450.503 102.788 451.121 102.622 451.844 102.622C452.558 102.622 453.158 102.774 453.643 103.077C454.129 103.38 454.497 103.805 454.749 104.351C455.001 104.892 455.127 105.527 455.127 106.255V106.773H450.122C450.118 107.184 450.183 107.548 450.318 107.865C450.454 108.182 450.654 108.432 450.92 108.614C451.186 108.791 451.515 108.88 451.907 108.88C452.309 108.88 452.656 108.791 452.95 108.614C453.249 108.432 453.447 108.157 453.545 107.788H455.099C455.015 108.292 454.815 108.719 454.497 109.069C454.185 109.419 453.802 109.685 453.349 109.867C452.901 110.049 452.432 110.14 451.942 110.14ZM450.115 105.716H453.517C453.517 105.366 453.454 105.051 453.328 104.771C453.207 104.486 453.023 104.262 452.775 104.099C452.528 103.931 452.215 103.847 451.837 103.847C451.464 103.847 451.149 103.938 450.892 104.12C450.636 104.302 450.442 104.538 450.311 104.827C450.181 105.112 450.115 105.408 450.115 105.716ZM457.55 112.31C457.083 112.31 456.759 112.273 456.577 112.198C456.395 112.128 456.304 112.093 456.304 112.093V111.001L457.032 111.022C457.326 111.036 457.564 111.02 457.746 110.973C457.932 110.926 458.077 110.861 458.18 110.777C458.282 110.698 458.357 110.611 458.404 110.518C458.455 110.429 458.495 110.352 458.523 110.287L458.712 109.755L455.891 102.762H457.585L459.51 107.879L461.428 102.762H463.094L460.112 110.266C459.888 110.812 459.645 111.232 459.384 111.526C459.127 111.825 458.845 112.03 458.537 112.142C458.233 112.254 457.904 112.31 457.55 112.31Z" fill="#FBFDFF"/>
<g opacity="0.3">
<path d="M-320.431 1426.58L1225.76 1696.95L695.212 219.855L-848.402 -43.3417L-320.431 1426.58Z" fill="url(#paint1_linear_3194_311104)" fill-opacity="0.5" stroke="white" stroke-opacity="0.1"/>
<path d="M173.581 -1253.09L1715.18 -972.974L694.382 219.41L-849.018 -43.7054L173.581 -1253.09Z" stroke="white" stroke-opacity="0.1"/>
<path d="M2233.37 491.959L1219.75 1681.77L694.35 219.017L1715.14 -973.367L2233.37 491.959Z" fill="url(#paint2_linear_3194_311104)" fill-opacity="0.6" stroke="white" stroke-opacity="0.1"/>
</g>
</g>
<defs>
<linearGradient id="paint0_linear_3194_311104" x1="0" y1="0" x2="114.972" y2="396.075" gradientUnits="userSpaceOnUse">
<stop offset="0.24238" stop-color="#0055FF"/>
<stop offset="1" stop-color="#21D6EF"/>
</linearGradient>
<linearGradient id="paint1_linear_3194_311104" x1="680.776" y1="84.4704" x2="-426.477" y2="1675.49" gradientUnits="userSpaceOnUse">
<stop stop-color="#CEDCF7"/>
<stop offset="1" stop-color="white" stop-opacity="0.8"/>
</linearGradient>
<linearGradient id="paint2_linear_3194_311104" x1="1960.13" y1="-386.499" x2="856.542" y2="1204.48" gradientUnits="userSpaceOnUse">
<stop stop-color="#DCE8FF"/>
<stop offset="1" stop-color="white" stop-opacity="0.8"/>
</linearGradient>
<clipPath id="clip0_3194_311104">
<rect width="787" height="168" rx="16" fill="white"/>
</clipPath>
</defs>
</svg>
