<svg width="43" height="23" viewBox="0 0 43 23" fill="none" xmlns="http://www.w3.org/2000/svg">
<rect x="0.546021" y="0.634003" width="41.732" height="21.732" rx="2.183" fill="#1f2937"/>
<path d="M8.42238 16.131C7.70636 16.131 7.12568 15.8908 6.68034 15.4106C6.24374 14.9303 6.02544 14.2798 6.02544 13.459V11.3502C6.02544 10.5207 6.24374 9.86576 6.68034 9.38549C7.11694 8.90523 7.69762 8.6651 8.42238 8.6651C9.01616 8.6651 9.49205 8.82665 9.85007 9.14973C10.2081 9.47281 10.3871 9.90505 10.3871 10.4464L10.1513 10.1714H10.4133L10.3871 8.53412V6.43844H11.5659V16H10.3871V14.6247H10.1513L10.3871 14.3496C10.3871 14.8998 10.2081 15.3364 9.85007 15.6595C9.49205 15.9738 9.01616 16.131 8.42238 16.131ZM8.81532 15.1093C9.30432 15.1093 9.68852 14.9565 9.96795 14.6509C10.2474 14.3453 10.3871 13.9218 10.3871 13.3804V11.4157C10.3871 10.8743 10.2474 10.4508 9.96795 10.1452C9.68852 9.83956 9.30432 9.68675 8.81532 9.68675C8.3176 9.68675 7.92466 9.83519 7.6365 10.1321C7.34834 10.429 7.20426 10.8568 7.20426 11.4157V13.3804C7.20426 13.9392 7.34834 14.3671 7.6365 14.664C7.92466 14.9609 8.3176 15.1093 8.81532 15.1093ZM16.9572 16.1048C16.3809 16.1048 15.8831 15.9956 15.464 15.7773C15.0449 15.559 14.7174 15.2447 14.4817 14.8343C14.2546 14.4151 14.1411 13.9218 14.1411 13.3542V11.4419C14.1411 10.8656 14.2546 10.3722 14.4817 9.96181C14.7174 9.5514 15.0449 9.23705 15.464 9.01875C15.8831 8.80045 16.3809 8.6913 16.9572 8.6913C17.5335 8.6913 18.0312 8.80045 18.4504 9.01875C18.8695 9.23705 19.1926 9.5514 19.4196 9.96181C19.6554 10.3722 19.7733 10.8612 19.7733 11.4288V13.3542C19.7733 13.9218 19.6554 14.4151 19.4196 14.8343C19.1926 15.2447 18.8695 15.559 18.4504 15.7773C18.0312 15.9956 17.5335 16.1048 16.9572 16.1048ZM16.9572 15.0569C17.4724 15.0569 17.874 14.9129 18.1622 14.6247C18.4504 14.3366 18.5944 13.913 18.5944 13.3542V11.4419C18.5944 10.883 18.4504 10.4595 18.1622 10.1714C17.874 9.88322 17.4724 9.73914 16.9572 9.73914C16.4507 9.73914 16.0491 9.88322 15.7522 10.1714C15.464 10.4595 15.3199 10.883 15.3199 11.4419V13.3542C15.3199 13.913 15.464 14.3366 15.7522 14.6247C16.0491 14.9129 16.4507 15.0569 16.9572 15.0569ZM25.1252 16.131C24.5489 16.131 24.0425 16.0218 23.6059 15.8035C23.178 15.5852 22.8462 15.2709 22.6104 14.8605C22.3746 14.4413 22.2568 13.948 22.2568 13.3804V11.4157C22.2568 10.8394 22.3746 10.346 22.6104 9.93561C22.8462 9.52521 23.178 9.21085 23.6059 8.99255C24.0425 8.77425 24.5489 8.6651 25.1252 8.6651C25.9548 8.6651 26.6228 8.88777 27.1292 9.3331C27.6357 9.77844 27.902 10.3853 27.9282 11.1537H26.7494C26.7232 10.6909 26.566 10.3373 26.2779 10.0928C25.9984 9.83956 25.6142 9.71295 25.1252 9.71295C24.61 9.71295 24.1996 9.86139 23.894 10.1583C23.5884 10.4464 23.4356 10.8612 23.4356 11.4026V13.3804C23.4356 13.9218 23.5884 14.3409 23.894 14.6378C24.1996 14.9347 24.61 15.0831 25.1252 15.0831C25.6142 15.0831 25.9984 14.9565 26.2779 14.7033C26.566 14.4501 26.7232 14.0964 26.7494 13.6424H27.9282C27.902 14.4108 27.6357 15.0176 27.1292 15.463C26.6228 15.9083 25.9548 16.131 25.1252 16.131ZM32.9658 16.1048C32.4768 16.1048 32.049 16.0306 31.6822 15.8821C31.3242 15.7249 31.0361 15.5066 30.8178 15.2272C30.6082 14.9478 30.4816 14.616 30.4379 14.2318H31.6167C31.6691 14.485 31.8088 14.6858 32.0359 14.8343C32.2716 14.9827 32.5816 15.0569 32.9658 15.0569H33.516C33.9788 15.0569 34.3237 14.9653 34.5507 14.7819C34.7777 14.5898 34.8912 14.3366 34.8912 14.0222C34.8912 13.7166 34.7865 13.4764 34.5769 13.3018C34.3761 13.1184 34.0748 12.9962 33.6731 12.9351L32.7039 12.7779C31.9966 12.6556 31.4683 12.4373 31.119 12.123C30.7785 11.7999 30.6082 11.3327 30.6082 10.7215C30.6082 10.0753 30.8134 9.5776 31.2238 9.22832C31.6342 8.87031 32.2498 8.6913 33.0706 8.6913H33.5683C34.2582 8.6913 34.8127 8.85284 35.2318 9.17593C35.6509 9.49901 35.9042 9.93561 35.9915 10.4857H34.8127C34.7603 10.2587 34.6293 10.0797 34.4197 9.94871C34.2102 9.809 33.9264 9.73914 33.5683 9.73914H33.0706C32.6253 9.73914 32.2978 9.8221 32.0883 9.988C31.8874 10.1539 31.787 10.4028 31.787 10.7346C31.787 11.0315 31.8743 11.2498 32.049 11.3895C32.2236 11.5292 32.4987 11.6296 32.8742 11.6907L33.8434 11.8479C34.6206 11.9702 35.1838 12.1972 35.5331 12.529C35.8911 12.8608 36.0701 13.3411 36.0701 13.9698C36.0701 14.6334 35.8561 15.1574 35.4283 15.5416C35.0091 15.917 34.3717 16.1048 33.516 16.1048H32.9658Z" fill="#363FF9"/>
</svg>
